<?xml version="1.0" encoding="UTF-8" standalone="no" ?>
<!DOCTYPE svg PUBLIC "-//W3C//DTD SVG 1.1//EN" "http://www.w3.org/Graphics/SVG/1.1/DTD/svg11.dtd">
<svg xmlns="http://www.w3.org/2000/svg" xmlns:xlink="http://www.w3.org/1999/xlink" version="1.1" width="609" height="609" viewBox="0 0 609 609" xml:space="preserve">
<desc>Created with Fabric.js 2.4.6</desc>
<defs>
</defs>
<rect x="0" y="0" width="100%" height="100%" fill="#ffffff"></rect>
<g transform="matrix(1 0 0 1 304.5 304.5)" style=""  >
	<g transform="matrix(2.03 0 0 2.03 0 0)" id="Background"  >
<rect style="stroke: none; stroke-width: 1; stroke-dasharray: none; stroke-linecap: butt; stroke-dashoffset: 0; stroke-linejoin: miter; stroke-miterlimit: 4; fill: rgb(255,255,255); fill-rule: nonzero; opacity: 1;"  x="-150" y="-150" rx="0" ry="0" width="300" height="300" />
</g>
	<g transform="matrix(0.99 0 0 0.99 -0.4 -57.98)" style=""  >
	<g transform="matrix(2.03 0 0 2.03 0.07 0.06)" id="innerlogo"  >
<path style="stroke: none; stroke-width: 1; stroke-dasharray: none; stroke-linecap: butt; stroke-dashoffset: 0; stroke-linejoin: miter; stroke-miterlimit: 4; fill: rgb(0,0,0); fill-rule: evenodd; opacity: 1;"  transform=" translate(-150, -121.6)" d="M 182.2 84.3 H 199 v 82.2 h -16.8 v -7.9 h 7.9 V 92.2 h -7.9 V 84.3 z M 155.6 84.6 v 7.6 v 54.4 L 128.4 113 v 17.6 l 22.7 28 h 16.1 v -74 C 167.2 84.6 155.6 84.6 155.6 84.6 z M 110 76.7 h -9 v 89.8 h 9 V 90.3 l 9.5 11.7 v 17.6 v 13.5 v 33.4 h 19.7 l -6.4 -7.9 h -4.4 v -14.5 l 11.7 14.5 l 6.4 7.9 h 29.7 v -7.9 V 83.8 v -7.1 h -29.5 v 7.6 H 124 h -0.5 l 6.4 7.9 h 16.8 V 122 l -18.2 -22.5 l -9 -11 L 110 76.7 z" stroke-linecap="round" />
</g>
</g>
	<g transform="matrix(1.72 0 0 1.72 -2.1 76.04)" style=""  >
		<text xml:space="preserve" font-family="'Montserrat-Bold'" font-size="20" font-style="normal" font-weight="normal" style="stroke: none; stroke-width: 1; stroke-dasharray: none; stroke-linecap: butt; stroke-dashoffset: 0; stroke-linejoin: miter; stroke-miterlimit: 4; fill: rgb(0,0,0); fill-rule: nonzero; opacity: 1; white-space: pre;" ><tspan x="-97.75" y="6.28" >Northstowe Karate Club</tspan></text>
</g>
	<g transform="matrix(2.03 0 0 2.03 -0.09 117.73)" style=""  >
		<text xml:space="preserve" font-family="'Montserrat-Bold'" font-size="8" font-style="normal" font-weight="normal" style="stroke: none; stroke-width: 1; stroke-dasharray: none; stroke-linecap: butt; stroke-dashoffset: 0; stroke-linejoin: miter; stroke-miterlimit: 4; fill: rgb(0,0,0); fill-rule: nonzero; opacity: 1; white-space: pre;" ><tspan x="-69.13" y="2.51" >T</tspan><tspan x="-61.52" y="2.51" >r</tspan><tspan x="-55.85" y="2.51" >a</tspan><tspan x="-49.3" y="2.51" >d</tspan><tspan x="-42.3" y="2.51" >i</tspan><tspan x="-37.08" y="2.51" >t</tspan><tspan x="-31.86" y="2.51" >i</tspan><tspan x="-26.63" y="2.51" >o</tspan><tspan x="-19.63" y="2.51" >n</tspan><tspan x="-12.63" y="2.51" >a</tspan><tspan x="-6.08" y="2.51" >l</tspan><tspan x="-0.86" y="2.51" style="white-space: pre; "> </tspan><tspan x="4.14" y="2.51" >J</tspan><tspan x="10.25" y="2.51" >K</tspan><tspan x="19.03" y="2.51" >A</tspan><tspan x="27.81" y="2.51" style="white-space: pre; "> </tspan><tspan x="32.81" y="2.51" >K</tspan><tspan x="41.59" y="2.51" >a</tspan><tspan x="48.14" y="2.51" >r</tspan><tspan x="53.8" y="2.51" >a</tspan><tspan x="60.35" y="2.51" >t</tspan><tspan x="65.57" y="2.51" >e</tspan></text>
</g>
</g>
</svg>